<?xml version="1.0" standalone="no"?>
<!DOCTYPE svg PUBLIC "-//W3C//DTD SVG 20010904//EN"
 "http://www.w3.org/TR/2001/REC-SVG-20010904/DTD/svg10.dtd">
<svg version="1.0" xmlns="http://www.w3.org/2000/svg"
 width="604.000000pt" height="604.000000pt" viewBox="0 0 604.000000 604.000000"
 preserveAspectRatio="xMidYMid meet">
<metadata>
Created by potrace 1.14, written by Peter Selinger 2001-2017
</metadata>
<g transform="translate(0.000000,604.000000) scale(0.100000,-0.100000)"
fill="#000000" stroke="none">
<path d="M2819 6036 c-2 -2 -35 -6 -74 -10 -80 -6 -208 -23 -245 -31 -14 -3
-41 -8 -60 -11 -19 -3 -43 -7 -52 -10 -9 -3 -26 -7 -39 -9 -132 -26 -383 -109
-549 -182 -389 -171 -771 -452 -1047 -769 -97 -111 -80 -90 -176 -220 -52 -72
-57 -79 -99 -144 -120 -182 -241 -434 -316 -655 -56 -163 -116 -409 -128 -520
-2 -22 -6 -50 -8 -63 -21 -104 -28 -490 -13 -677 5 -54 10 -101 11 -105 2 -3
6 -27 10 -55 7 -60 13 -92 28 -165 6 -30 12 -59 14 -65 9 -44 57 -224 64 -240
5 -11 18 -47 29 -80 35 -107 121 -309 166 -389 12 -23 37 -68 55 -101 18 -33
70 -116 115 -185 425 -642 1105 -1112 1846 -1276 62 -14 177 -35 209 -39 19
-2 85 -10 145 -18 107 -14 525 -16 620 -3 22 3 60 8 85 12 25 3 61 8 80 10 53
7 174 33 280 59 268 67 518 170 755 308 55 33 113 66 129 75 24 14 189 133
221 159 6 4 35 28 65 53 228 186 436 419 607 677 96 146 235 418 296 578 40
105 106 324 121 395 2 14 10 50 16 80 6 30 13 66 15 80 2 14 9 57 15 95 19
126 25 217 25 425 0 227 -12 382 -40 520 -2 13 -7 41 -10 62 -3 21 -19 91 -36
155 -151 593 -485 1139 -939 1533 -41 36 -77 67 -80 70 -18 20 -220 165 -295
212 -320 201 -678 344 -1035 413 -96 19 -100 19 -190 30 -36 4 -78 9 -95 12
-34 5 -491 13 -496 9z"/>
</g>
</svg>
